<svg width="13" height="13" viewBox="0 0 13 13" fill="none" xmlns="http://www.w3.org/2000/svg">
<path d="M11.5625 6.21029C11.6089 8.86773 9.49217 11.0597 6.83473 11.1061L6.85 11.9809C9.99065 11.9261 12.4922 9.33568 12.4374 6.19502L11.5625 6.21029ZM6.83473 11.1061C4.17726 11.1524 1.98536 9.03571 1.93897 6.37827L1.0641 6.39354C1.11892 9.5342 3.70936 12.0357 6.85 11.9809L6.83473 11.1061ZM1.93897 6.37827C1.89258 3.72081 4.00928 1.5289 6.66675 1.48252L6.65148 0.607649C3.51083 0.662469 1.00928 3.2529 1.0641 6.39354L1.93897 6.37827ZM6.66675 1.48252C9.32419 1.43613 11.5161 3.55283 11.5625 6.21029L12.4374 6.19502C12.3826 3.05438 9.79213 0.552828 6.65148 0.607649L6.66675 1.48252Z" fill="#F2F2F2"/>
<path d="M4.40618 5.89764C4.1646 5.90185 3.97217 6.10112 3.97639 6.34271C3.9806 6.58429 4.17987 6.77672 4.42145 6.7725L4.40618 5.89764ZM9.08741 6.69106C9.329 6.68684 9.52143 6.48758 9.51721 6.24599C9.51299 6.00441 9.31372 5.81198 9.07214 5.81619L9.08741 6.69106ZM4.42145 6.7725L9.08741 6.69106L9.07214 5.81619L4.40618 5.89764L4.42145 6.7725Z" fill="#F2F2F2"/>
<path d="M6.3508 8.63488C6.35502 8.87647 6.55428 9.0689 6.79587 9.06468C7.03745 9.06046 7.22988 8.8612 7.22567 8.61961L6.3508 8.63488ZM7.14422 3.95366C7.14 3.71207 6.94074 3.51964 6.69915 3.52386C6.45757 3.52808 6.26514 3.72734 6.26935 3.96893L7.14422 3.95366ZM7.22567 8.61961L7.14422 3.95366L6.26935 3.96893L6.3508 8.63488L7.22567 8.61961Z" fill="#F2F2F2"/>
</svg>
