<svg width="20" height="20" viewBox="0 0 20 20" fill="none" xmlns="http://www.w3.org/2000/svg">
<g clip-path="url(#clip0_46_3934)">
<path d="M20 10C20 15.5228 15.5228 20 10 20C4.47715 20 0 15.5228 0 10C0 4.47715 4.47715 0 10 0C12.6522 0 15.1957 1.05357 17.0711 2.92893C18.9464 4.8043 20 7.34784 20 10Z" fill="#1BA27A"/>
<path d="M15 5H5V7.54739H8.7948V11.25H11.2052V7.54739H15V5Z" fill="white"/>
<path d="M9.96891 10.9586C6.894 10.9586 4.39953 10.4915 4.39953 9.90436C4.39953 9.31717 6.87327 8.85676 9.96891 8.85676C13.0645 8.85676 15.4968 9.32384 15.4968 9.90436C15.4968 10.4849 13.0093 10.9586 9.96891 10.9586ZM16.1878 10.0845C16.1878 9.33052 13.3893 8.75 9.96891 8.75C6.54851 8.75 3.75 9.35721 3.75 10.0845C3.75 10.8118 5.91971 11.2923 8.79422 11.419V16.25H11.1574V11.419C14.0596 11.2989 16.25 10.7518 16.25 10.0845" fill="white"/>
</g>
<defs>
<clipPath id="clip0_46_3934">
<rect width="20" height="20" fill="white"/>
</clipPath>
</defs>
</svg>
