<svg width="24" height="24" viewBox="0 0 24 24" fill="none" xmlns="http://www.w3.org/2000/svg">
<path d="M4.98292 7.19631C6.19132 7.19631 7.17092 6.21671 7.17092 5.00831C7.17092 3.79991 6.19132 2.82031 4.98292 2.82031C3.77452 2.82031 2.79492 3.79991 2.79492 5.00831C2.79492 6.21671 3.77452 7.19631 4.98292 7.19631Z" fill="#3672E9"/>
<path d="M9.23722 8.85469V20.9937H13.0062V14.9907C13.0062 13.4067 13.3042 11.8727 15.2682 11.8727C17.2052 11.8727 17.2292 13.6837 17.2292 15.0907V20.9947H21.0002V14.3377C21.0002 11.0677 20.2962 8.55469 16.4742 8.55469C14.6392 8.55469 13.4092 9.56169 12.9062 10.5147H12.8552V8.85469H9.23722ZM3.09521 8.85469H6.87021V20.9937H3.09521V8.85469Z" fill="#3672E9"/>
</svg>
