<svg width="16" height="16" viewBox="0 0 16 16" fill="none" xmlns="http://www.w3.org/2000/svg">
<path d="M1.33203 2.66671C1.33203 1.93033 1.92899 1.33337 2.66536 1.33337H9.33203C10.0684 1.33337 10.6654 1.93033 10.6654 2.66671V5.33337H13.332C14.0684 5.33337 14.6654 5.93033 14.6654 6.66671V13.3334C14.6654 14.0698 14.0684 14.6667 13.332 14.6667H6.66536C5.92898 14.6667 5.33203 14.0698 5.33203 13.3334V10.6667H2.66536C1.92898 10.6667 1.33203 10.0698 1.33203 9.33337V2.66671ZM6.66536 10.6667V13.3334H13.332V6.66671H10.6654V9.33337C10.6654 10.0698 10.0684 10.6667 9.33203 10.6667H6.66536ZM9.33203 9.33337V2.66671L2.66536 2.66671V9.33337H9.33203Z" fill="#3672E9"/>
</svg>
