<svg width="36" height="36" viewBox="0 0 36 36" fill="none" xmlns="http://www.w3.org/2000/svg">
<path d="M22.2426 14.7426C23.3679 13.6174 24 12.0913 24 10.5C24 8.9087 23.3679 7.38258 22.2426 6.25736C21.1174 5.13214 19.5913 4.5 18 4.5C16.4087 4.5 14.8826 5.13214 13.7574 6.25736C12.6321 7.38258 12 8.9087 12 10.5C12 12.0913 12.6321 13.6174 13.7574 14.7426C14.8826 15.8679 16.4087 16.5 18 16.5C19.5913 16.5 21.1174 15.8679 22.2426 14.7426Z" stroke="white" stroke-width="2" stroke-linecap="round" stroke-linejoin="round"/>
<path d="M10.5754 24.0754C12.5445 22.1062 15.2152 21 18 21C20.7848 21 23.4555 22.1062 25.4246 24.0754C27.3938 26.0445 28.5 28.7152 28.5 31.5H7.5C7.5 28.7152 8.60625 26.0445 10.5754 24.0754Z" stroke="white" stroke-width="2" stroke-linecap="round" stroke-linejoin="round"/>
</svg>
